<?xml version="1.0" encoding="utf-8"?>
<!-- Generator: Adobe Illustrator 25.0.1, SVG Export Plug-In . SVG Version: 6.00 Build 0)  -->
<svg version="1.1" id="Ebene_1" xmlns="http://www.w3.org/2000/svg" xmlns:xlink="http://www.w3.org/1999/xlink" x="0px" y="0px"
	 viewBox="0 0 100 100" style="enable-background:new 0 0 100 100;" xml:space="preserve">
<style type="text/css">
	.st0{fill:#E0E0E0;}
</style>
<path class="st0" d="M60.45,95.7c-0.66,1.54-3.44,1.34-14.52,1.21c-5.12-0.06-7.81,0.2-8.47-1.21c-0.6-1.28,0.82-3.09,1.21-3.63
	c4.55-6.19,3.51-20.37,3.63-37.52C42.44,32.92,44.3,24.6,42,24c-1.39-0.36-3.93,3.76-9,12c-0.54,0.87-5.7,9.36-7.22,16.4
	c-0.3,1.39-0.43,2.16-0.43,2.16c-0.61,4.52,0.39,7.63-1.21,8.47c-0.91,0.48-1.98-0.13-7.26-3.63c-7.23-4.79-8.56-5.85-8.47-7.26
	c0.1-1.54,1.83-2.38,3.63-3.63c2.88-2,14.5-22.12,19.36-30.26C37.44,8.15,40.46,3.1,44.71,2.51c0.61-0.08,1.09-0.02,1.43,0
	C52.93,3.02,57.68,10.68,61,16c16.58,26.54,21.66,33.22,27,35c0.66,0.22,2.95,0.91,3,2c0.07,1.41-3.68,1.86-9,5
	c-4.24,2.5-5.96,4.65-7,4c-0.95-0.59-0.14-2.81,0-5c0.39-6-4.34-9.79-10-17c-8.22-10.47-9.23-16.48-11-16
	c-1.9,0.52-0.58,7.37,0.39,28.13c1.05,22.45,0.03,33.3,4.84,39.94C59.7,92.71,61,94.4,60.45,95.7z"/>
</svg>
